<svg xmlns="http://www.w3.org/2000/svg" viewBox="0 0 200 200" fill="none">
  <defs>
    <linearGradient id="g1" x1="0%" y1="0%" x2="100%" y2="100%">
      <stop offset="0%" stop-color="#7c3aed"/>
      <stop offset="50%" stop-color="#3b82f6"/>
      <stop offset="100%" stop-color="#06b6d4"/>
    </linearGradient>
    <linearGradient id="g2" x1="0%" y1="100%" x2="100%" y2="0%">
      <stop offset="0%" stop-color="#7c3aed"/>
      <stop offset="100%" stop-color="#3b82f6"/>
    </linearGradient>
  </defs>
  <!-- Rounded square background -->
  <rect x="20" y="20" width="160" height="160" rx="36" fill="url(#g1)" opacity="0.12"/>
  <rect x="20" y="20" width="160" height="160" rx="36" stroke="url(#g1)" stroke-width="3" fill="none" opacity="0.3"/>
  <!-- Rising bar chart -->
  <rect x="52" y="120" width="18" height="36" rx="4" fill="url(#g2)" opacity="0.6"/>
  <rect x="78" y="96" width="18" height="60" rx="4" fill="url(#g2)" opacity="0.75"/>
  <rect x="104" y="72" width="18" height="84" rx="4" fill="url(#g2)" opacity="0.9"/>
  <rect x="130" y="52" width="18" height="104" rx="4" fill="url(#g1)"/>
  <!-- Upward arrow/flow line -->
  <path d="M 56 114 Q 85 80, 113 66 Q 130 58, 145 44" stroke="url(#g1)" stroke-width="3.5" stroke-linecap="round" fill="none"/>
  <path d="M 138 42 L 148 42 L 148 52" stroke="url(#g1)" stroke-width="3.5" stroke-linecap="round" stroke-linejoin="round" fill="none"/>
  <!-- Dot accents -->
  <circle cx="56" cy="114" r="4" fill="#7c3aed"/>
  <circle cx="148" cy="42" r="4" fill="#06b6d4"/>
</svg>
